<svg preserveAspectRatio="none" width="100%" height="100%" overflow="visible" style="display: block;" viewBox="0 0 390.968 91.6899" fill="none" xmlns="http://www.w3.org/2000/svg">
<g id="Title Background">
<path id="Vector" d="M120.916 38.8687C120.916 52.6561 109.789 63.7832 96.0021 63.7832H15.9461V91.6872H0V0.00610867H96.0021C109.789 0.00610867 120.916 11.1332 120.916 24.9206V38.8726V38.8687ZM104.97 47.837V15.9484H15.9461V47.837H104.97Z" fill="var(--fill-0, black)"/>
<path id="Vector_2" d="M254.781 91.686H238.835V63.7821H149.81V91.686H133.864V0.00500801H229.866C243.654 0.00500801 254.781 11.1321 254.781 24.9195V38.8715C254.781 46.5116 250.796 52.4904 244.649 55.8129C250.792 59.1353 254.781 65.1142 254.781 72.7542V91.6899V91.686ZM238.835 47.8358V15.9473H149.81V47.8358H238.835Z" fill="var(--fill-0, black)"/>
<path id="Vector_3" d="M390.968 66.7704C390.968 80.5578 379.841 91.685 366.053 91.685H294.966C281.182 91.685 270.051 80.5578 270.051 66.7704V24.9145C270.051 11.131 281.178 0 294.966 0H366.053C379.841 0 390.968 11.1271 390.968 24.9145V66.7704ZM375.026 75.7387V15.9462H286.001V75.7387H375.026Z" fill="var(--fill-0, black)"/>
</g>
</svg>
